<svg width="125" height="46" viewBox="0 0 125 46" fill="none" xmlns="http://www.w3.org/2000/svg">
<g clip-path="url(#clip0_14_18)">
<path fill-rule="evenodd" clip-rule="evenodd" d="M84.6318 12.6208H94.1234L97.1051 17.5584H84.686V17.5587C80.3489 17.5587 76.8329 21.1511 76.8329 25.5823C76.8329 29.9722 80.2832 33.5387 84.5644 33.6051H100.607L95.7751 25.5828H101.816L106.648 33.6051H106.704V38.5353H84.686V38.5439C84.5315 38.5439 84.3777 38.541 84.2247 38.5353H83.6635V38.5023C77.1355 37.9704 72 32.389 72 25.5823C72 18.4425 77.6504 12.6508 84.6318 12.621V12.6208ZM86.4984 21.9268C86.4984 23.2903 85.4167 24.3957 84.082 24.3957C82.7476 24.3957 81.6657 23.2903 81.6657 21.9268C81.6657 20.5632 82.7474 19.4578 84.082 19.4578C85.4167 19.4578 86.4984 20.5632 86.4984 21.9268ZM84.082 31.2329C85.4167 31.2329 86.4984 30.1274 86.4984 28.7639C86.4984 27.4004 85.4167 26.295 84.082 26.295C82.7476 26.295 81.6657 27.4004 81.6657 28.7639C81.6657 30.1274 82.7474 31.2329 84.082 31.2329Z" fill="#966DEF"/>
</g>
<path d="M3.39304 38.106L1.18663 11.1574H4.85836L5.59945 22.3916L6.20579 34.8721H7.03109L7.36794 22.3916L9.0017 11.3259H14.1556L15.8062 22.3916L16.0925 34.8721H16.901L17.541 22.3916L18.2821 11.1574H21.937L19.7306 38.106H13.5829L12.5724 29.9203L11.9997 14.4418H11.1407L10.5512 29.9203L9.54067 38.106H3.39304ZM24.33 38.106V11.1574H29.6355C31.6454 11.1574 33.0995 11.5785 33.9978 12.4206C34.9073 13.2628 35.3957 14.6607 35.4631 16.6145C35.4968 17.4342 35.5136 18.1865 35.5136 18.8714C35.5248 19.5452 35.5248 20.2133 35.5136 20.8757C35.5136 21.527 35.4968 22.2176 35.4631 22.9474C35.4294 24.2162 35.2104 25.2493 34.8062 26.0465C34.4132 26.8325 33.8013 27.4164 32.9704 27.7981L35.9178 38.106H32.044L29.5344 28.4045H27.968V38.106H24.33ZM27.968 25.1875H29.6186C30.3485 25.1875 30.8875 25.0191 31.2355 24.6822C31.5949 24.3341 31.7914 23.8176 31.825 23.1327C31.8587 22.4141 31.8812 21.6786 31.8924 20.9263C31.9036 20.1627 31.9036 19.4048 31.8924 18.6525C31.8812 17.889 31.8587 17.1479 31.825 16.4292C31.7914 15.7443 31.6005 15.2334 31.2524 14.8965C30.9043 14.5597 30.3653 14.3913 29.6355 14.3913H27.968V25.1875ZM37.1847 38.106L40.4859 11.1574H46.5494L49.8506 38.106H46.1283L45.4883 31.3857H41.547L40.9239 38.106H37.1847ZM41.9007 28.1518H45.1514L44.5787 22.2232L43.9892 14.3913H43.046L42.4734 22.2232L41.9007 28.1518ZM51.9627 38.106V11.1574H57.2682C59.2781 11.1574 60.7322 11.5785 61.6305 12.4206C62.54 13.2628 63.0285 14.6607 63.0959 16.6145C63.1408 17.8384 63.1632 18.95 63.1632 19.9494C63.1632 20.9487 63.1408 21.9986 63.0959 23.099C63.0285 25.0415 62.54 26.4395 61.6305 27.2929C60.7322 28.135 59.2725 28.5561 57.2514 28.5561H55.6008V38.106H51.9627ZM55.6008 25.3223H57.2514C57.9812 25.3223 58.5202 25.1538 58.8683 24.817C59.2276 24.4689 59.4241 23.958 59.4578 23.2843C59.4915 22.5656 59.5139 21.8133 59.5252 21.0273C59.5364 20.2413 59.5364 19.4609 59.5252 18.6862C59.5139 17.9002 59.4915 17.1479 59.4578 16.4292C59.4241 15.7443 59.2332 15.2334 58.8851 14.8965C58.5371 14.5597 57.9981 14.3913 57.2682 14.3913H55.6008V25.3223Z" fill="#966DEF"/>
<g clip-path="url(#clip1_14_18)">
<path d="M109.886 7.28163C110.294 7.77184 110.504 8.40545 110.544 9.01933L110.753 12.1957C111.422 12.3405 112.011 12.7347 112.401 13.2983C112.807 13.8839 112.95 14.5747 112.854 15.2288L115.755 16.5399C116.315 16.7932 116.835 17.2122 117.151 17.7666C117.48 18.346 117.577 19.0675 117.253 19.7824C116.847 20.6802 116.056 21.7362 114.572 22.7648C113.087 23.7935 111.821 24.1626 110.837 24.2278C110.054 24.2801 109.413 23.9356 108.986 23.4239C108.578 22.9332 108.368 22.2996 108.328 21.6857L108.119 18.5094C107.45 18.3645 106.86 17.9703 106.471 17.4067C106.08 16.8442 105.918 16.154 106.018 15.4763L103.117 14.1652C102.556 13.9118 102.037 13.4929 101.722 12.9379C101.392 12.359 101.295 11.6376 101.619 10.9226C102.025 10.0249 102.816 8.96885 104.3 7.94019C105.785 6.91154 107.051 6.54243 108.035 6.47728C108.818 6.42499 109.459 6.76997 109.886 7.28163Z" fill="#966DEF"/>
</g>
<defs>
<clipPath id="clip0_14_18">
<rect width="34.7772" height="26.0849" fill="white" transform="translate(72 12.6208)"/>
</clipPath>
<clipPath id="clip1_14_18">
<rect width="21.6422" height="21.6422" fill="white" transform="translate(112.168 0.29541) rotate(55.2842)"/>
</clipPath>
</defs>
</svg>
